<svg width="52" height="44" viewBox="0 0 52 44" fill="none" xmlns="http://www.w3.org/2000/svg">
<g id="feedback" clip-path="url(#clip0_992_917)">
<path id="Vector" d="M4.02396 8.37354C2.39391 11.7788 1.75753 19.728 7.39569 26.103C12.096 31.4398 26.8892 43.1627 26.8892 43.1627" stroke="#12100B" stroke-width="2" stroke-linecap="round" stroke-linejoin="round"/>
<path id="Vector_2" d="M26.8887 8.22867C26.8887 8.22867 23.517 0.357571 14.8643 0.859981C14.8643 0.859981 7.88642 0.324077 4.02344 8.37381" stroke="#12100B" stroke-width="2" stroke-linecap="round" stroke-linejoin="round"/>
<path id="Vector_3" d="M27.0469 8.22867C27.0469 8.22867 30.4074 0.357571 39.0712 0.859981C39.0712 0.859981 46.0492 0.324077 49.9121 8.37381C51.5422 11.779 52.1786 19.7283 46.5516 26.1033C41.8512 31.44 27.058 43.1629 27.058 43.1629" stroke="#12100B" stroke-width="2" stroke-linecap="round" stroke-linejoin="round"/>
<path id="Vector_4" d="M7.17188 25.288H22.4005L25.6941 30.5912L30.5507 15.1616L33.5428 24.8861H47.5768" stroke="#12100B" stroke-width="2" stroke-linejoin="round"/>
</g>
<defs>
<clipPath id="clip0_992_917">
<rect width="51" height="44" fill="white" transform="translate(0.964844)"/>
</clipPath>
</defs>
</svg>
