<svg width="52" height="44" viewBox="0 0 52 44" fill="none" xmlns="http://www.w3.org/2000/svg">
<g id="feedback" clip-path="url(#clip0_992_964)">
<path id="Vector" d="M14.0781 9.96722C16.6168 10.3002 18.9369 8.52101 19.2699 6.00316C19.6028 3.4749 17.8133 1.15473 15.2746 0.821795C12.7359 0.488856 10.4158 2.268 10.0828 4.79626C9.74989 7.31411 11.5394 9.63428 14.0781 9.96722Z" stroke="#12100B" stroke-width="2" stroke-miterlimit="10"/>
<path id="Vector_2" d="M0.78125 12.1836L7.71055 21.2458C8.40764 22.151 9.69778 22.307 10.5821 21.5787L18.6559 14.9407C19.5403 14.2124 20.9241 14.2853 21.7356 15.0864L50.1291 43.4487" stroke="#12100B" stroke-width="2" stroke-miterlimit="10"/>
<path id="Vector_3" d="M28.3623 28.2788L24.1902 31.5146C23.285 32.2117 23.3474 33.2729 24.3359 33.8555L39.3909 42.8657" stroke="#12100B" stroke-width="2" stroke-miterlimit="10"/>
<path id="Vector_4" d="M25.6152 11.2781L32.1908 9.22846C33.2832 8.88511 33.8139 9.47816 33.3769 10.529L30.7134 16.8861" stroke="#12100B" stroke-width="2" stroke-miterlimit="10"/>
<path id="Vector_5" d="M36.9141 18.249L49.7114 30.8591" stroke="#12100B" stroke-width="2" stroke-miterlimit="10"/>
<path id="Vector_6" d="M40.7324 14.6597L50.8767 24.6582" stroke="#12100B" stroke-width="2" stroke-miterlimit="10"/>
<path id="Vector_7" d="M44.7285 11.3511L50.3365 16.8758" stroke="#12100B" stroke-width="2" stroke-miterlimit="10"/>
</g>
<defs>
<clipPath id="clip0_992_964">
<rect width="51.2622" height="44" fill="white" transform="translate(0.15625)"/>
</clipPath>
</defs>
</svg>
