<svg width="80" height="80" viewBox="0 0 80 80" fill="none" xmlns="http://www.w3.org/2000/svg">
<circle opacity="0.7" cx="40" cy="40" r="40" fill="#F5F5F5"/>
<g clip-path="url(#clip0_992_1382)">
<path d="M54.3059 40.3104L40.3526 36.8216V27.429C40.3526 24.904 38.306 22.8574 35.781 22.8574C33.2565 22.8574 31.2099 24.904 31.2099 27.429V42.6789L30.5402 42.0092C29.4713 40.9336 28.0165 40.3309 26.5002 40.3351H26.4412C24.9035 40.346 23.437 40.9809 22.3764 42.0938C21.1719 43.3485 21.1652 45.172 22.3317 46.7034L32.3336 61.0003C33.3335 62.8498 35.2675 64.002 37.3698 64.0003H50.6383C55.0546 63.9948 58.633 60.4164 58.6384 56.0001V45.8597C58.6414 43.2342 56.8538 40.9445 54.3059 40.3104ZM56.3525 56.0001C56.3495 59.155 53.7927 61.7114 50.6383 61.7147H37.3698C36.0627 61.7026 34.8707 60.9655 34.276 59.8016L24.1774 45.3574C23.8861 44.9736 23.478 44.2458 24.0259 43.6766C24.6616 43.0082 25.5418 42.627 26.4642 42.6207H26.5002C27.4101 42.6177 28.2831 42.9798 28.9239 43.6251L31.5447 46.246C31.8716 46.5728 32.3629 46.6703 32.7902 46.4937C33.2171 46.3167 33.4954 45.8998 33.4954 45.4378V27.429C33.4954 26.1663 34.5187 25.143 35.781 25.143C37.0437 25.143 38.067 26.1663 38.067 27.429V37.7147C38.067 38.2391 38.424 38.6966 38.9329 38.8238L53.7521 42.5294C55.2819 42.9095 56.355 44.2835 56.3525 45.8597V56.0001Z" fill="black"/>
<path d="M35.7813 20.5716C36.0847 20.5716 36.3756 20.4515 36.5898 20.2367C36.8041 20.0225 36.9247 19.7316 36.9242 19.4286V17.143C36.9242 16.5119 36.4128 16 35.7813 16C35.1501 16 34.6387 16.5119 34.6387 17.143V19.4286C34.6383 19.7316 34.7588 20.0225 34.9731 20.2367C35.1874 20.4515 35.4782 20.5716 35.7813 20.5716Z" fill="black"/>
<path d="M25.4941 27.4286H27.7801C28.4113 27.4286 28.9227 26.9167 28.9227 26.2856C28.9227 25.6544 28.4113 25.1426 27.7801 25.1426H25.4941C24.863 25.1426 24.3516 25.6544 24.3516 26.2856C24.3516 26.9167 24.863 27.4286 25.4941 27.4286Z" fill="black"/>
<path d="M42.6367 26.2856C42.6367 26.5886 42.7573 26.8795 42.9715 27.0937C43.1858 27.3085 43.4767 27.4286 43.7797 27.4286H46.0653C46.6968 27.4286 47.2083 26.9167 47.2083 26.2856C47.2083 25.6544 46.6968 25.1426 46.0653 25.1426H43.7797C43.4767 25.1426 43.1858 25.2627 42.9715 25.4774C42.7573 25.6917 42.6367 25.9826 42.6367 26.2856Z" fill="black"/>
<path d="M41.2014 22.5801C41.5045 22.5805 41.7953 22.4599 42.0092 22.2452L43.6255 20.6289C44.0612 20.1811 44.0562 19.4662 43.6142 19.0243C43.1723 18.5823 42.4574 18.5773 42.0092 19.013L40.3933 20.6289C40.0664 20.9558 39.9689 21.4475 40.1455 21.8744C40.3225 22.3013 40.739 22.5796 41.2014 22.5801Z" fill="black"/>
<path d="M29.5527 22.2452C29.8402 22.5411 30.2646 22.6596 30.6635 22.5549C31.0623 22.4503 31.3737 22.1385 31.4788 21.7397C31.5834 21.3408 31.465 20.9164 31.1691 20.6293L29.5527 19.013C29.1049 18.5773 28.39 18.5823 27.9481 19.0243C27.5061 19.4662 27.5011 20.1811 27.9368 20.6289L29.5527 22.2452Z" fill="black"/>
</g>
<defs>
<clipPath id="clip0_992_1382">
<rect width="48" height="48" fill="white" transform="translate(16 16)"/>
</clipPath>
</defs>
</svg>
