<svg width="36" height="44" viewBox="0 0 36 44" fill="none" xmlns="http://www.w3.org/2000/svg">
<g id="feedback" clip-path="url(#clip0_992_1341)">
<g id="Group">
<path id="Vector" d="M20.3867 15.1423V10.2407" stroke="#12100B" stroke-width="2" stroke-linejoin="round"/>
<path id="Vector_2" d="M31.8265 20.3672V43.3431H20.3867V20.3672" stroke="#12100B" stroke-width="2" stroke-linejoin="round"/>
<path id="Vector_3" d="M31.8262 10.2407V14.9147" stroke="#12100B" stroke-width="2" stroke-linejoin="round"/>
<path id="Vector_4" d="M32.9818 14.9146H19.2225C18.42 14.9146 17.7695 15.5651 17.7695 16.3675V18.9146C17.7695 19.717 18.42 20.3675 19.2225 20.3675H32.9818C33.7842 20.3675 34.4347 19.717 34.4347 18.9146V16.3675C34.4347 15.5651 33.7842 14.9146 32.9818 14.9146Z" stroke="#12100B" stroke-width="2" stroke-linejoin="round"/>
<path id="Vector_5" d="M32.6054 0.65625H19.5989C18.5885 0.65625 17.7695 1.47527 17.7695 2.48557V8.41117C17.7695 9.42148 18.5885 10.2405 19.5989 10.2405H32.6054C33.6157 10.2405 34.4347 9.42148 34.4347 8.41117V2.48557C34.4347 1.47527 33.6157 0.65625 32.6054 0.65625Z" stroke="#12100B" stroke-width="2" stroke-linejoin="round"/>
<path id="Vector_6" d="M26.1016 5.45264V10.0916" stroke="#12100B" stroke-width="2" stroke-linejoin="round"/>
</g>
<g id="Group_2">
<path id="Vector_7" d="M1.55859 4.88404V43.3436H12.9984V4.88404L7.34415 0.945312L1.55859 4.88404Z" stroke="#12100B" stroke-width="2" stroke-linejoin="round"/>
<g id="Group_3">
<path id="Vector_8" d="M7.2748 12.9104C7.60741 12.9104 7.88749 12.6391 7.88749 12.2977C7.88749 11.9564 7.61616 11.6851 7.2748 11.6851C6.93344 11.6851 6.66211 11.9564 6.66211 12.2977C6.66211 12.6391 6.93344 12.9104 7.2748 12.9104Z" stroke="#12100B" stroke-width="2" stroke-linejoin="round"/>
<path id="Vector_9" d="M7.2748 11.6851C7.60741 11.6851 7.88749 11.9564 7.88749 12.2977C7.88749 12.6391 7.61616 12.9104 7.2748 12.9104C6.93344 12.9104 6.66211 12.6391 6.66211 12.2977C6.66211 11.9564 6.93344 11.6851 7.2748 11.6851Z" stroke="#12100B" stroke-width="2" stroke-linejoin="round"/>
<path id="Vector_10" d="M7.2748 18.8975C6.93344 18.8975 6.66211 19.1688 6.66211 19.5102C6.66211 19.8515 6.93344 20.1228 7.2748 20.1228C7.61616 20.1228 7.88749 19.8515 7.88749 19.5102C7.88749 19.1688 7.61616 18.8975 7.2748 18.8975Z" stroke="#12100B" stroke-width="2" stroke-linejoin="round"/>
<path id="Vector_11" d="M7.2748 20.1228C6.93344 20.1228 6.66211 19.8515 6.66211 19.5102C6.66211 19.1688 6.93344 18.8975 7.2748 18.8975C7.61616 18.8975 7.88749 19.1688 7.88749 19.5102C7.88749 19.8515 7.61616 20.1228 7.2748 20.1228Z" stroke="#12100B" stroke-width="2" stroke-linejoin="round"/>
<path id="Vector_12" d="M7.2748 26.1094C6.93344 26.1094 6.66211 26.3807 6.66211 26.7221C6.66211 27.0634 6.93344 27.3348 7.2748 27.3348C7.61616 27.3348 7.88749 27.0634 7.88749 26.7221C7.88749 26.3807 7.61616 26.1094 7.2748 26.1094Z" stroke="#12100B" stroke-width="2" stroke-linejoin="round"/>
<path id="Vector_13" d="M7.2748 27.326C6.93344 27.326 6.66211 27.0546 6.66211 26.7133C6.66211 26.3719 6.93344 26.1006 7.2748 26.1006C7.61616 26.1006 7.88749 26.3719 7.88749 26.7133C7.88749 27.0546 7.61616 27.326 7.2748 27.326Z" stroke="#12100B" stroke-width="2" stroke-linejoin="round"/>
</g>
</g>
</g>
<defs>
<clipPath id="clip0_992_1341">
<rect width="34.1969" height="44" fill="white" transform="translate(0.902344)"/>
</clipPath>
</defs>
</svg>
