<svg width="47" height="44" viewBox="0 0 47 44" fill="none" xmlns="http://www.w3.org/2000/svg">
<g id="feedback" clip-path="url(#clip0_992_1321)">
<g id="Group">
<g id="Group_2">
<path id="Vector" d="M18.8047 0.629883H29.2253C29.6871 0.629883 30.0986 1.00775 30.1322 1.46958C30.1322 1.46958 30.5688 6.94439 30.8459 8.07797C31.1986 9.52225 31.5345 10.807 32.8108 12.6039" stroke="#12100B" stroke-width="2" stroke-linejoin="round"/>
<path id="Vector_2" d="M25.471 0.629883H15.0503C14.5885 0.629883 14.1771 1.00775 14.1435 1.46958C14.1435 1.46958 13.7068 6.94439 13.4297 8.07797C13.0771 9.52225 12.7412 10.807 11.4648 12.6039" stroke="#12100B" stroke-width="2" stroke-linejoin="round"/>
</g>
<g id="Group_3">
<path id="Vector_3" d="M25.4715 43.3705H15.0425C14.5807 43.3705 14.1692 42.9927 14.1357 42.5308C14.1357 42.5308 13.699 37.056 13.4219 35.9224C13.0692 34.4782 12.7334 33.1934 11.457 31.3965" stroke="#12100B" stroke-width="2" stroke-linejoin="round"/>
<path id="Vector_4" d="M18.7969 43.3705H29.2175C29.6793 43.3705 30.0908 42.9927 30.1244 42.5308C30.1244 42.5308 30.561 37.056 30.8381 35.9224C31.1908 34.4782 31.5266 33.1934 32.803 31.3965" stroke="#12100B" stroke-width="2" stroke-linejoin="round"/>
</g>
<path id="Vector_5" d="M36.3705 22.0253C36.3705 29.8848 29.9972 36.2665 22.1293 36.2665C14.2614 36.2665 7.89648 29.8848 7.89648 22.0253C7.89648 14.1658 14.2698 7.79248 22.1293 7.79248C29.9889 7.79248 36.3705 14.1658 36.3705 22.0337V22.0253Z" stroke="#12100B" stroke-width="2" stroke-miterlimit="10"/>
</g>
<path id="Vector_6" d="M40.8535 21.9497H45.8413" stroke="#12100B" stroke-width="2" stroke-miterlimit="10"/>
<path id="Vector_7" d="M38.3184 12.5955L42.6428 10.1016" stroke="#12100B" stroke-width="2" stroke-miterlimit="10"/>
<path id="Vector_8" d="M38.3691 31.3208L42.6936 33.8147" stroke="#12100B" stroke-width="2" stroke-miterlimit="10"/>
</g>
<defs>
<clipPath id="clip0_992_1321">
<rect width="45.2222" height="44" fill="white" transform="translate(0.888672)"/>
</clipPath>
</defs>
</svg>
