<svg width="45" height="44" viewBox="0 0 45 44" fill="none" xmlns="http://www.w3.org/2000/svg">
<g id="feedback" clip-path="url(#clip0_992_924)">
<path id="Vector" d="M22.1693 41.9733H1.41199C0.900729 41.9733 0.482422 41.553 0.482422 41.0393V0" stroke="#12100B" stroke-width="2" stroke-miterlimit="10"/>
<path id="Vector_2" d="M0.482422 29.2243L18.1814 11.4412L27.7095 21.0146L39.9706 8.69531" stroke="#12100B" stroke-width="2" stroke-miterlimit="10"/>
<path id="Vector_3" d="M33.4178 43.2999C33.4178 43.2999 27.5615 38.77 25.9626 36.6499C25.8603 36.5191 25.5722 36.0988 25.5722 36.0988C25.1353 35.3797 24.875 34.5391 24.875 33.6331C24.875 31.0366 26.9758 28.9165 29.5693 28.9165C31.1589 28.9165 32.5625 29.7104 33.4178 30.9246C34.2637 29.7104 35.6766 28.9165 37.2662 28.9165C39.8597 28.9165 41.9698 31.0273 41.9698 33.6331C41.9698 34.5391 41.7188 35.3797 41.2726 36.0988C41.2726 36.0988 40.9845 36.5098 40.8822 36.6499C39.2833 38.77 33.4363 43.3092 33.427 43.2999H33.4178Z" stroke="#12100B" stroke-width="2" stroke-miterlimit="10"/>
</g>
<defs>
<clipPath id="clip0_992_924">
<rect width="44" height="44" fill="white" transform="translate(0.0371094)"/>
</clipPath>
</defs>
</svg>
