<svg width="45" height="44" viewBox="0 0 45 44" fill="none" xmlns="http://www.w3.org/2000/svg">
<g id="feedback" clip-path="url(#clip0_992_1308)">
<path id="Vector" d="M43.2921 32.5229C43.2921 31.9648 42.8355 31.4574 42.2875 31.3864L31.2469 28.8901C30.7192 28.7074 29.9683 28.8799 29.5726 29.2656L27.2589 31.5792C26.8631 31.975 26.305 32.1678 26.0107 32.0054L25.7469 31.8532C20.3687 28.7582 15.8936 24.2932 12.7884 18.9251L12.6261 18.641C12.4536 18.3264 12.6261 17.748 13.032 17.3523L15.3456 15.0386C15.7414 14.6429 15.9139 13.8919 15.7211 13.3643L13.2248 2.34397C13.1639 1.78585 12.6464 1.33936 12.0882 1.33936H8.60761C8.04949 1.33936 7.23769 1.63364 6.81149 1.9888C6.82163 1.97865 1.2709 6.54507 1.38252 7.55983C2.38713 16.9464 6.60854 25.3689 12.9406 31.6908C19.2626 38.0128 27.6851 42.2443 37.0716 43.2489C38.0864 43.3606 42.6427 37.8098 42.6427 37.8098C42.9978 37.3836 43.2921 36.5718 43.2921 36.0137V32.5331V32.5229Z" stroke="#12100B" stroke-width="2" stroke-miterlimit="10"/>
<g id="Group">
<path id="Vector_2" d="M22.4883 8.24023C30.7078 8.54466 36.7761 15.4247 36.0455 23.6139" stroke="#12100B" stroke-width="2" stroke-miterlimit="10"/>
<path id="Vector_3" d="M22.8438 0.76123C35.508 1.0961 44.7524 11.5786 43.4941 24.1819" stroke="#12100B" stroke-width="2" stroke-miterlimit="10"/>
</g>
</g>
<defs>
<clipPath id="clip0_992_1308">
<rect width="43.7565" height="44" fill="white" transform="translate(0.621094)"/>
</clipPath>
</defs>
</svg>
