<svg width="45" height="44" viewBox="0 0 45 44" fill="none" xmlns="http://www.w3.org/2000/svg">
<g id="Icons" clip-path="url(#clip0_992_930)">
<path id="Vector" d="M13.433 8.398C13.433 5.73403 13.8985 3.18891 14.7601 0.822037V0.782425C14.7601 0.782425 14.7601 0.723005 14.7205 0.742812L14.6809 0.762618C6.77809 4.11981 1.24219 11.9731 1.24219 21.1434C1.24219 33.3541 11.0662 43.2474 23.1976 43.2474C32.5958 43.2474 40.6075 37.3055 43.7369 28.9472L43.7567 28.9076C43.7567 28.9076 43.7567 28.8382 43.727 28.8481H43.6973C41.1323 29.9177 38.3297 30.502 35.3885 30.502C23.2669 30.502 13.443 20.5988 13.443 8.3881L13.433 8.398Z" stroke="#12100B" stroke-width="2" stroke-miterlimit="10"/>
</g>
<defs>
<clipPath id="clip0_992_930">
<rect width="45" height="44" fill="white"/>
</clipPath>
</defs>
</svg>
