<svg width="53" height="44" viewBox="0 0 53 44" fill="none" xmlns="http://www.w3.org/2000/svg">
<g id="feedback" clip-path="url(#clip0_992_946)">
<g id="Group">
<path id="Vector" d="M51.8893 35.7664C51.8893 39.8933 48.5413 43.2414 44.4144 43.2414C40.2875 43.2414 36.9395 39.8933 36.9395 35.7664C36.9395 31.6396 40.2875 28.2915 44.4144 28.2915C48.5413 28.2915 51.8893 31.6396 51.8893 35.7664Z" stroke="#12100B" stroke-width="2" stroke-miterlimit="10"/>
<path id="Vector_2" d="M48.5312 35.7663H44.4043V31.0527" stroke="#12100B" stroke-width="2" stroke-miterlimit="10"/>
</g>
<g id="Group_2">
<path id="Vector_3" d="M13.8877 9.69023C16.3558 10.0139 18.6114 8.28425 18.9351 5.83644C19.2588 3.37851 17.519 1.12287 15.0509 0.799196C12.5829 0.475518 10.3273 2.20517 10.0036 4.6631C9.67992 7.11092 11.4197 9.36655 13.8877 9.69023Z" stroke="#12100B" stroke-width="2" stroke-miterlimit="10"/>
<path id="Vector_4" d="M0.960938 11.8447L7.69749 20.6548C8.37519 21.5348 9.62944 21.6866 10.4892 20.9785L18.3384 14.5252C19.1982 13.8171 20.5435 13.8879 21.3324 14.6668L34.2593 27.5735" stroke="#12100B" stroke-width="2" stroke-miterlimit="10"/>
<path id="Vector_5" d="M27.7754 27.4927L23.7193 30.6384C22.8393 31.3161 22.9 32.3478 23.8609 32.9143L31.4269 37.4458" stroke="#12100B" stroke-width="2" stroke-miterlimit="10"/>
<path id="Vector_6" d="M25.1055 10.9645L31.4981 8.97184C32.5602 8.63804 33.076 9.21459 32.6512 10.2362L30.0618 16.4164" stroke="#12100B" stroke-width="2" stroke-miterlimit="10"/>
</g>
</g>
<defs>
<clipPath id="clip0_992_946">
<rect width="52.2943" height="44" fill="white" transform="translate(0.353516)"/>
</clipPath>
</defs>
</svg>
