<svg width="53" height="44" viewBox="0 0 53 44" fill="none" xmlns="http://www.w3.org/2000/svg">
<g id="Icons" clip-path="url(#clip0_992_1336)">
<path id="Vector" d="M38.1183 26.3305C39.6407 19.9101 35.6702 13.4712 29.2498 11.9487C22.8294 10.4263 16.3904 14.3968 14.868 20.8172C13.3455 27.2376 17.3161 33.6766 23.7365 35.199C30.1569 36.7215 36.5958 32.7509 38.1183 26.3305Z" stroke="#12100B" stroke-width="2" stroke-miterlimit="10"/>
<path id="Vector_2" d="M39.3449 6.78967C38.7174 6.78967 37.9644 6.32532 37.6758 5.76057L35.7807 1.9705C35.4921 1.40575 34.7516 0.941406 34.1116 0.941406H18.876C18.2485 0.941406 17.4955 1.40575 17.2068 1.9705L15.3118 5.76057C15.0232 6.32532 14.2827 6.78967 13.6427 6.78967H2.49834C1.87085 6.78967 1.34375 7.30421 1.34375 7.94426V41.9169C1.34375 42.5444 1.8583 43.0715 2.49834 43.0715H50.5018C51.1293 43.0715 51.6564 42.5569 51.6564 41.9169V7.94426C51.6564 7.31676 51.1418 6.78967 50.5018 6.78967H39.3449Z" stroke="#12100B" stroke-width="2" stroke-miterlimit="10"/>
</g>
<defs>
<clipPath id="clip0_992_1336">
<rect width="52.1951" height="44" fill="white" transform="translate(0.402344)"/>
</clipPath>
</defs>
</svg>
