<svg width="31" height="44" viewBox="0 0 31 44" fill="none" xmlns="http://www.w3.org/2000/svg">
<g clip-path="url(#clip0_992_957)">
<path d="M24.1451 9.22149C24.1451 13.9261 20.3309 17.7403 15.6263 17.7403C10.9217 17.7403 7.10742 13.9261 7.10742 9.22149C7.10742 4.51691 10.9217 0.702637 15.6263 0.702637C20.3309 0.702637 24.1451 4.51691 24.1451 9.22149Z" stroke="#12100B" stroke-width="2" stroke-miterlimit="10"/>
<path d="M15.3831 43.297H29.7498C30.0404 43.297 30.284 43.0627 30.284 42.7628V39.0329C30.284 30.7952 23.677 24.1226 15.5236 24.1226H15.4674C7.31406 24.1226 0.707031 30.7952 0.707031 39.0329V42.7628C0.707031 43.0533 0.941323 43.297 1.24122 43.297H15.608" stroke="#12100B" stroke-width="2" stroke-miterlimit="10"/>
<path d="M12.4412 34.8188C11.1756 34.8188 10.5428 33.9517 10.5428 32.2173C10.5428 30.4751 11.1756 29.604 12.4412 29.604C13.7146 29.604 14.3514 30.4751 14.3514 32.2173C14.3514 33.9517 13.7146 34.8188 12.4412 34.8188ZM16.9646 29.7563H18.1365L13.9998 38.2407H12.8162L16.9646 29.7563ZM12.4412 33.8462C12.699 33.8462 12.8865 33.7173 13.0037 33.4595C13.1209 33.2017 13.1795 32.7876 13.1795 32.2173C13.1795 31.647 13.1209 31.2329 13.0037 30.9751C12.8865 30.7095 12.699 30.5767 12.4412 30.5767C12.1912 30.5767 12.0076 30.7095 11.8904 30.9751C11.7732 31.2329 11.7146 31.647 11.7146 32.2173C11.7146 32.7876 11.7732 33.2017 11.8904 33.4595C12.0076 33.7173 12.1912 33.8462 12.4412 33.8462ZM18.5115 38.3931C17.2381 38.3931 16.6014 37.522 16.6014 35.7798C16.6014 34.0454 17.2381 33.1782 18.5115 33.1782C19.7849 33.1782 20.4217 34.0454 20.4217 35.7798C20.4217 37.522 19.7849 38.3931 18.5115 38.3931ZM18.5115 37.4204C18.7693 37.4204 18.9568 37.2915 19.074 37.0337C19.1912 36.7681 19.2498 36.3501 19.2498 35.7798C19.2498 35.2095 19.1912 34.7954 19.074 34.5376C18.9568 34.2798 18.7693 34.1509 18.5115 34.1509C18.2537 34.1509 18.0662 34.2798 17.949 34.5376C17.8318 34.7954 17.7732 35.2095 17.7732 35.7798C17.7732 36.3501 17.8318 36.7681 17.949 37.0337C18.0662 37.2915 18.2537 37.4204 18.5115 37.4204Z" fill="black"/>
</g>
<defs>
<clipPath id="clip0_992_957">
<rect width="30.9734" height="44" fill="white" transform="translate(0.0136719)"/>
</clipPath>
</defs>
</svg>
