<svg width="60" height="44" viewBox="0 0 60 44" fill="none" xmlns="http://www.w3.org/2000/svg">
<g id="feedback" clip-path="url(#clip0_992_978)">
<g id="Group">
<path id="Vector" d="M19.4969 19.2027C22.3168 18.8259 24.3033 16.2343 23.9266 13.4258C23.5498 10.6059 20.9582 8.6422 18.1269 9.01895C15.307 9.3957 13.3205 11.9873 13.7086 14.8072C14.0854 17.6157 16.677 19.5794 19.5083 19.2027H19.4969Z" stroke="#12100B" stroke-width="2" stroke-miterlimit="10"/>
<path id="Vector_2" d="M19.9746 0.787598L31.7681 5.59403C32.9326 6.07353 33.4577 7.39787 32.944 8.53954L28.1376 19.2142C27.6238 20.3558 28.0919 21.8058 29.1765 22.4337L38.9035 28.0165L42.8651 30.2884L47.0208 32.6745" stroke="#12100B" stroke-width="2" stroke-miterlimit="10"/>
<path id="Vector_3" d="M13.3652 31.9325L24.4394 24.9341" stroke="#12100B" stroke-width="2" stroke-miterlimit="10"/>
</g>
<path id="Vector_4" d="M0.691406 42.6872C2.83775 41.9565 4.66442 39.4677 5.88601 37.3784C7.59852 40.3011 10.4984 43.1324 13.7864 43.1324C17.0744 43.1324 19.9742 40.3011 21.6867 37.3784C23.3992 40.3011 26.2877 43.1324 29.5757 43.1324C32.8637 43.1324 35.7635 40.3011 37.476 37.3784C39.1886 40.3011 42.0884 43.1324 45.365 43.1324C48.6416 43.1324 51.5529 40.3011 53.2654 37.3784C54.7153 39.8673 57.0215 42.5388 59.7044 43.0069" stroke="#12100B" stroke-width="2" stroke-linejoin="round"/>
</g>
<defs>
<clipPath id="clip0_992_978">
<rect width="59.424" height="44" fill="white" transform="translate(0.417969)"/>
</clipPath>
</defs>
</svg>
